<svg width="549" height="549" viewBox="0 0 549 549" fill="none" xmlns="http://www.w3.org/2000/svg">
<path d="M101.531 364.441C107.982 374.815 115.332 384.571 123.488 393.587C125.931 396.287 128.447 398.92 131.03 401.486C138.858 409.261 147.314 416.406 156.317 422.832C158.789 424.597 161.306 426.302 163.859 427.957C173.265 434.054 183.207 439.39 193.598 443.888C196.087 444.965 198.601 445.995 201.139 446.974C211.121 450.825 221.48 453.911 232.15 456.159C234.803 456.718 237.476 457.222 240.166 457.676C250.053 459.347 260.182 460.304 270.5 460.492C271.755 460.515 273.009 460.54 274.27 460.54C275.531 460.54 276.786 460.515 278.041 460.492C289.287 460.288 300.311 459.175 311.04 457.214C313.731 456.723 316.403 456.175 319.056 455.579C329.736 453.177 340.096 449.935 350.066 445.925C352.605 444.904 355.122 443.841 357.608 442.722C368.017 438.037 377.958 432.499 387.347 426.202C389.903 424.487 392.416 422.713 394.888 420.888C403.919 414.219 412.375 406.82 420.176 398.779C422.761 396.114 425.28 393.385 427.717 390.582C435.939 381.126 443.293 370.899 449.674 360.03C452.581 355.079 455.29 349.998 457.778 344.791C468.048 323.295 474.644 299.712 476.775 274.852C477.272 269.056 477.54 263.195 477.54 257.27C477.54 145.007 386.533 54 274.27 54C162.007 54 71 145.007 71 257.27C71 263.269 71.2756 269.202 71.7845 275.069C74.1161 301.939 81.6636 327.315 93.4279 350.17C95.9382 355.047 98.648 359.804 101.531 364.441Z" fill="#734394"/>
<path d="M145.198 257.274C145.198 340.514 208.655 408.932 289.832 416.794C371.046 408.967 434.544 340.54 434.544 257.274C434.544 174.008 371.046 105.581 289.832 97.7539C208.655 105.615 145.198 174.033 145.198 257.274Z" fill="#F6A413"/>
<path d="M274.27 417.549C275.619 417.549 276.963 417.531 278.304 417.497C278.785 417.486 279.264 417.462 279.744 417.445C280.601 417.417 281.458 417.39 282.311 417.348C282.887 417.32 283.459 417.279 284.033 417.244C284.787 417.199 285.541 417.157 286.292 417.101C286.903 417.055 287.511 416.998 288.12 416.946C288.704 416.896 289.289 416.855 289.871 416.799L289.832 416.794C208.655 408.933 145.198 340.515 145.198 257.275C145.198 174.034 208.655 105.616 289.832 97.7545L289.871 97.7504C289.289 97.6941 288.704 97.6524 288.12 97.6024C287.511 97.5501 286.903 97.4933 286.292 97.448C285.536 97.3917 284.778 97.3495 284.02 97.304C283.451 97.2698 282.885 97.2292 282.315 97.2011C281.455 97.1586 280.591 97.1318 279.727 97.1026C279.253 97.0867 278.78 97.0628 278.304 97.0511C276.963 97.018 275.619 97 274.27 97C185.753 97 113.995 168.757 113.995 257.274C113.995 345.791 185.753 417.549 274.27 417.549Z" fill="#F38F16"/>
<path d="M362.674 248.915L331.179 278.639C328.298 281.358 326.939 285.322 327.546 289.237L334.177 332.033C335.705 341.894 325.263 349.225 316.507 344.441L278.505 323.673C275.028 321.772 270.839 321.705 267.302 323.492L228.65 343.023C228.221 343.24 227.787 343.404 227.354 343.566C228.698 351.069 237.104 355.944 244.619 352.147L283.271 332.616C286.807 330.829 290.996 330.897 294.473 332.797L332.475 353.565C341.231 358.35 351.673 351.018 350.145 341.157L343.514 298.361C342.907 294.446 344.266 290.482 347.147 287.763L378.642 258.039C385.899 251.19 382.152 238.994 372.303 237.4L365.815 236.35C367.204 240.516 366.385 245.412 362.674 248.915Z" fill="#F38F16"/>
<path d="M313.584 221.356L319.95 222.387L302.059 184.611C299.261 178.704 292.83 176.604 287.439 178.335L304.627 214.626C306.323 218.207 309.673 220.724 313.584 221.356Z" fill="#F38F16"/>
<path d="M185.589 246.055L216.109 276.78C218.901 279.591 220.131 283.596 219.398 287.49L211.39 330.049C209.634 339.382 218.788 346.752 227.354 343.563C227.787 343.401 228.221 343.237 228.65 343.02L267.302 323.489C270.839 321.702 275.028 321.769 278.505 323.669L316.507 344.437C325.263 349.223 335.704 341.89 334.177 332.03L327.546 289.234C326.939 285.319 328.298 281.355 331.179 278.636L362.674 248.911C366.385 245.409 367.204 240.513 365.815 236.347C364.488 232.366 361.147 229.051 356.334 228.273L319.95 222.385L313.584 221.355C309.673 220.722 306.323 218.205 304.627 214.624L287.439 178.333L286.09 175.485C281.819 166.467 269.061 166.262 264.502 175.137L244.712 213.657C242.901 217.182 239.472 219.589 235.542 220.096L192.591 225.631C182.695 226.906 178.557 238.976 185.589 246.055Z" fill="#FDC74E"/>
<path d="M334.048 177.351C334.193 177.511 334.338 177.67 334.483 177.83C341.603 185.645 349.381 193.186 358.953 197.675C362.22 199.207 365.731 200.377 369.339 200.419C372.947 200.461 376.678 199.266 379.162 196.648C382.655 192.967 383.062 187.319 382.354 182.293C381.108 173.442 377.085 165.223 372.495 157.553C366.04 146.767 358.211 136.581 348.064 129.16C338.993 122.525 320.285 115.197 314.801 129.976C313.464 133.578 313.43 137.547 313.955 141.352C315.861 155.178 324.665 166.988 334.048 177.351Z" fill="white"/>
<path d="M393.27 242.779L393.489 243.064C397.074 247.714 401.024 252.237 406.049 255.126C407.764 256.112 409.624 256.905 411.574 257.072C413.525 257.239 415.583 256.719 417.016 255.355C419.032 253.437 419.444 250.297 419.233 247.462C418.861 242.467 416.965 237.714 414.744 233.246C411.62 226.962 407.732 220.96 402.496 216.41C397.815 212.342 387.945 207.504 384.474 215.544C383.629 217.503 383.475 219.719 383.629 221.866C384.188 229.668 388.548 236.616 393.27 242.779Z" fill="white"/>
</svg>
