<svg width="549" height="549" viewBox="0 0 549 549" fill="none" xmlns="http://www.w3.org/2000/svg">
<path d="M274.915 484C263.819 484 252.876 481.067 243.266 475.522L116.649 402.416C97.1292 391.15 85 370.147 85 347.604V201.399C85 178.859 97.1264 157.853 116.649 146.584L243.266 73.4834C252.876 67.9326 263.819 65 274.915 65C286.008 65 296.954 67.9326 306.564 73.4834L433.181 146.584C452.701 157.856 464.83 178.859 464.83 201.399V347.604C464.83 370.147 452.703 391.15 433.181 402.419L306.564 475.519C296.951 481.067 286.008 484 274.915 484Z" fill="#734394"/>
<path d="M428.932 395.062L302.315 468.165C285.36 477.956 264.467 477.956 247.512 468.165L120.895 395.062C103.94 385.273 93.4919 367.18 93.4919 347.601V201.396C93.4919 181.817 103.937 163.723 120.895 153.935L247.512 80.8315C264.467 71.0432 285.36 71.0432 302.315 80.8315L428.932 153.935C445.887 163.726 456.335 181.817 456.335 201.396V347.601C456.335 367.18 445.89 385.27 428.932 395.062Z" fill="#734394"/>
<path d="M413.185 382.735L299.513 448.363C284.29 457.152 265.534 457.152 250.311 448.363L136.639 382.735C121.416 373.946 112.038 357.704 112.038 340.126V208.87C112.038 191.292 121.416 175.05 136.639 166.261L250.311 100.633C265.534 91.8437 284.29 91.8437 299.513 100.633L413.185 166.261C428.408 175.05 437.786 191.292 437.786 208.87V340.126C437.786 357.704 428.408 373.946 413.185 382.735Z" fill="#F38F16"/>
<path d="M405.525 376.74L298.151 438.731C283.772 447.033 266.055 447.033 251.675 438.731L144.302 376.74C129.922 368.438 121.065 353.096 121.065 336.492V212.508C121.065 195.903 129.922 180.561 144.302 172.259L251.675 110.266C266.055 101.964 283.772 101.964 298.151 110.266L405.525 172.259C419.905 180.561 428.762 195.903 428.762 212.508V336.492C428.762 353.096 419.905 368.441 405.525 376.74Z" fill="#FF8F00"/>
<path d="M298.151 438.731L405.525 376.741C419.905 368.439 428.762 353.097 428.762 336.492V212.508C428.762 203.379 426.07 194.641 421.272 187.236C355.121 221.532 237.163 279.868 121.068 323.324V336.492C121.068 353.097 129.925 368.439 144.304 376.741L251.678 438.731C266.055 447.034 283.772 447.034 298.151 438.731Z" fill="#F6A413"/>
<path d="M344.347 387.059C341.129 387.059 337.913 386.193 335.04 384.554L278.181 352.079C277.188 351.512 276.058 351.21 274.915 351.21C273.768 351.21 272.639 351.51 271.646 352.079L214.787 384.554C211.917 386.193 208.698 387.059 205.48 387.059C199.892 387.059 194.42 384.438 190.848 380.045C187.301 375.686 185.931 369.994 187.086 364.429L200.402 300.321C200.877 298.048 200.102 295.664 198.383 294.102L149.929 250.063C144.389 245.03 142.388 237.481 144.698 230.362C147.01 223.243 153.068 218.315 160.51 217.499L225.597 210.352C227.907 210.097 229.931 208.625 230.885 206.508L257.795 146.816C260.872 139.994 267.431 135.754 274.918 135.754C282.399 135.754 288.96 139.991 292.037 146.816L318.948 206.508C319.902 208.625 321.929 210.097 324.236 210.352L389.323 217.499C396.762 218.315 402.819 223.246 405.132 230.362C407.445 237.481 405.441 245.03 399.904 250.063L351.446 294.102C349.728 295.661 348.955 298.045 349.428 300.321L362.743 364.429C363.898 369.996 362.528 375.689 358.982 380.048C355.406 384.435 349.938 387.057 344.347 387.059Z" fill="#FFDF50"/>
<path d="M286.478 149.318L313.389 209.01C315.234 213.104 319.107 215.917 323.568 216.407L388.655 223.554C399.516 224.746 403.889 238.2 395.802 245.551L347.348 289.59C344.025 292.61 342.547 297.162 343.458 301.558L356.774 365.668C358.996 376.368 347.551 384.682 338.063 379.264L281.205 346.788C277.307 344.56 272.52 344.56 268.622 346.788L211.764 379.264C202.275 384.685 190.828 376.368 193.053 365.668L206.369 301.558C207.283 297.162 205.802 292.61 202.479 289.59L154.025 245.551C145.938 238.2 150.308 224.746 161.172 223.554L226.259 216.407C230.723 215.917 234.593 213.104 236.438 209.01L263.349 149.318C267.841 139.357 281.986 139.357 286.478 149.318Z" fill="url(#paint0_radial_533_4)"/>
<path d="M370.944 268.143C309.816 294.204 250.025 304.929 204.809 309.082L193.056 365.666C190.834 376.366 202.278 384.679 211.767 379.261L268.625 346.786C272.523 344.558 277.31 344.558 281.207 346.786L338.066 379.261C347.554 384.682 358.999 376.366 356.776 365.666L343.461 301.555C342.547 297.159 344.027 292.608 347.35 289.587L370.944 268.143Z" fill="url(#paint1_linear_533_4)"/>
<path d="M276.86 180.478C274.142 188.143 268.835 193.258 265.002 191.899C261.169 190.541 260.264 183.226 262.981 175.558C265.696 167.893 271.006 162.778 274.838 164.137C278.671 165.495 279.577 172.812 276.86 180.478Z" fill="#FFF8E1"/>
<path d="M265.602 201.375C265.602 204.18 263.329 206.453 260.524 206.453C257.719 206.453 255.446 204.18 255.446 201.375C255.446 198.57 257.719 196.297 260.524 196.297C263.329 196.297 265.602 198.57 265.602 201.375Z" fill="#FFF8E1"/>
<path d="M359.016 241.954C350.909 241.283 344.61 237.456 344.945 233.402C345.279 229.349 352.123 226.606 360.227 227.277C368.334 227.948 374.632 231.775 374.298 235.828C373.964 239.879 367.122 242.622 359.016 241.954Z" fill="#FFF8E1"/>
<path d="M335.935 236.401C333.223 237.117 330.443 235.498 329.727 232.786C329.011 230.075 330.63 227.295 333.342 226.582C336.053 225.865 338.833 227.485 339.546 230.196C340.263 232.908 338.646 235.685 335.935 236.401Z" fill="#FFF8E1"/>
<defs>
<radialGradient id="paint0_radial_533_4" cx="0" cy="0" r="1" gradientUnits="userSpaceOnUse" gradientTransform="translate(265.007 241.593) scale(122.34 122.34)">
<stop stop-color="#FFF176"/>
<stop offset="0.047" stop-color="#FFEF72"/>
<stop offset="0.6875" stop-color="#FFD53D"/>
<stop offset="1" stop-color="#FFCB28"/>
</radialGradient>
<linearGradient id="paint1_linear_533_4" x1="310.274" y1="421.707" x2="233.848" y2="145.721" gradientUnits="userSpaceOnUse">
<stop stop-color="#FFD54F"/>
<stop offset="0.4801" stop-color="#FFAF16"/>
<stop offset="0.6546" stop-color="#FFA000"/>
</linearGradient>
</defs>
</svg>
